<svg viewBox="0 0 108 108" width="512" height="512" xmlns="http://www.w3.org/2000/svg">
  <defs>
    <linearGradient id="bg" x1="6" y1="6" x2="102" y2="102" gradientUnits="userSpaceOnUse">
      <stop offset="0" stop-color="#7C3AED"/>
      <stop offset="0.55" stop-color="#B026C9"/>
      <stop offset="1" stop-color="#EC4899"/>
    </linearGradient>
    <radialGradient id="glow" cx="54" cy="30" r="40" gradientUnits="userSpaceOnUse">
      <stop offset="0" stop-color="#FFFFFF" stop-opacity="0.14"/>
      <stop offset="1" stop-color="#FFFFFF" stop-opacity="0"/>
    </radialGradient>
    <clipPath id="squircle"><rect x="0" y="0" width="108" height="108" rx="24" ry="24"/></clipPath>
  </defs>

  <g clip-path="url(#squircle)">
    <rect width="108" height="108" fill="url(#bg)"/>
    <circle cx="54" cy="30" r="40" fill="url(#glow)"/>

    <!-- 마이크 몸통 -->
    <path d="M41,35 V48 A13,13 0 0 0 67,48 V35 A13,13 0 0 0 41,35 Z" fill="#FFFFFF"/>
    <!-- 그릴 -->
    <g stroke="#9333EA" stroke-width="2" stroke-linecap="round">
      <line x1="46" y1="31" x2="62" y2="31"/>
      <line x1="46" y1="38" x2="62" y2="38"/>
      <line x1="46" y1="45" x2="62" y2="45"/>
    </g>
    <!-- 거치대·스탠드·받침 -->
    <g stroke="#FFFFFF" stroke-width="4.5" stroke-linecap="round" fill="none">
      <path d="M33,49 A21,21 0 0 0 75,49"/>
      <line x1="54" y1="70" x2="54" y2="83"/>
      <line x1="42" y1="83" x2="66" y2="83"/>
    </g>
    <!-- 음표 액센트 -->
    <circle cx="74" cy="26" r="3" fill="#FFD54F"/>
    <path d="M77,26 V15 L84,18" stroke="#FFD54F" stroke-width="2" stroke-linecap="round" fill="none"/>
  </g>
</svg>
